# xmcd
#
# Track frame offsets:
#	150
#	25444
#	46652
#	68958
#	90925
#	118140
#	137335
#	181646
#	198905
#	218994
#	248340
#	274609
#	295695
#
# Disc length: 4240 seconds
#
# Revision: 0
# Processed by: cddbd v1.5.2PL0 Copyright (c) Steve Scherf et al.
# Submitted via: audiograbber 1.83.01
#
DISCID=aa108e0d
DTITLE=Godsmack - Live and Inspired
DYEAR=2012
DGENRE=Rock
TTITLE0=Straight Outta Line
TTITLE1=Realign
TTITLE2=Awake
TTITLE3=Moon Baby
TTITLE4=Changes
TTITLE5=The Enemy
TTITLE6=Keep Away
TTITLE7=Speak
TTITLE8=Voodoo
TTITLE9=Batalla De Los Tambores
TTITLE10=Whatever
TTITLE11=Serenity
TTITLE12=I Stand Alone
EXTD=
EXTT0=
EXTT1=
EXTT2=
EXTT3=
EXTT4=
EXTT5=
EXTT6=
EXTT7=
EXTT8=
EXTT9=
EXTT10=
EXTT11=
EXTT12=
PLAYORDER=
